<svg width="1920" height="980" viewBox="0 0 1920 980" fill="none" xmlns="http://www.w3.org/2000/svg">
<path d="M236.761 916.538C130.363 919.409 18.3565 870.412 -24.3469 845.555L-55.3409 1117.59L1931.8 1343.99L2055.34 259.712C1975.35 250.598 1769.23 235.36 1584.66 247.317C1353.94 262.263 1087.19 381.811 813.834 629.929C540.476 878.046 369.759 912.948 236.761 916.538Z" fill="#D7EDF6"/>
<path d="M215.87 932.671C109.83 923.48 4.09036 862.118 -35.5246 832.586L-97.1141 1099.36L1851.63 1549.26L2097.11 485.936C2018.67 467.827 1815.6 429.353 1630.86 420.339C1399.93 409.071 1121.37 497.654 821.678 713.231C521.989 928.809 348.419 944.161 215.87 932.671Z" fill="url(#paint0_linear)"/>
<g opacity="0.3">
<path d="M1301.78 674.815V688.98V690.297H1303.1H1317.27V702.637H1303.1H1301.78V703.955V718.119H1289.44V703.955V702.637H1288.13H1273.96V690.297H1288.13H1289.44V688.98V674.815H1301.78ZM1303.1 673.498H1288.13V688.98H1272.65V703.955H1288.13V719.437H1303.1V703.955H1318.58V688.98H1303.1V673.498Z" fill="#D1F0FF"/>
<path d="M1661.82 665.275H1641.3V644.725H1621.41V665.275H1600.86V685.14H1621.41V705.69H1641.3V685.14H1661.82V665.275Z" fill="#D1F0FF"/>
<path d="M1443.58 921.922C1444.77 921.922 1445.73 920.958 1445.73 919.768C1445.73 918.579 1444.77 917.614 1443.58 917.614C1442.39 917.614 1441.43 918.579 1441.43 919.768C1441.43 920.958 1442.39 921.922 1443.58 921.922Z" fill="#D1F0FF"/>
<path d="M1335.92 830.472H1320.46V815.015H1305.49V830.472H1290V845.447H1305.49V860.929H1320.46V845.447H1335.92V830.472Z" fill="#D1F0FF"/>
<path d="M1538.2 764.994H1523.55V750.349H1509.39V764.994H1494.74V779.184H1509.39V793.83H1523.55V779.184H1538.2V764.994Z" fill="#D1F0FF"/>
<path d="M1256.93 914.318C1256.93 915.534 1255.95 916.522 1254.73 916.522C1253.51 916.522 1252.53 915.534 1252.53 914.318C1252.53 913.101 1253.51 912.113 1254.73 912.113C1255.95 912.113 1256.93 913.101 1256.93 914.318Z" fill="#D1F0FF"/>
<path d="M1908.55 883.075H1882.04V856.571H1856.4V883.075H1829.9V908.718H1856.4V935.222H1882.04V908.718H1908.55V883.075Z" fill="#D1F0FF"/>
<path d="M1920 723.541C1920 725.72 1918.23 727.494 1916.05 727.494C1913.87 727.494 1912.09 725.72 1912.09 723.541C1912.09 721.362 1913.87 719.588 1916.05 719.588C1918.23 719.614 1920 721.387 1920 723.541Z" fill="#D1F0FF"/>
<path d="M1783.91 819.628V853.608V856.775H1787.07H1821.05V886.371H1787.07H1783.91V889.538V923.517H1754.31V889.538V886.371H1751.14H1717.16V856.775H1751.14H1754.31V853.608V819.628H1783.91ZM1787.1 816.461H1751.17V853.608H1714.02V889.538H1751.17V926.685H1787.1V889.538H1824.25V853.608H1787.1V816.461Z" fill="#D1F0FF"/>
<path d="M1690.2 737.632C1690.2 739.203 1688.94 740.445 1687.39 740.445C1685.82 740.445 1684.58 739.178 1684.58 737.632C1684.58 736.061 1685.84 734.819 1687.39 734.819C1688.94 734.819 1690.2 736.086 1690.2 737.632Z" fill="#D1F0FF"/>
<path d="M1826.37 600.839V633.526V636.566H1829.41H1862.1V665.047H1829.41H1826.37V668.088V700.775H1797.89V668.088V665.047H1794.85H1762.16V636.566H1794.85H1797.89V633.526V600.839H1826.37ZM1829.41 597.798H1794.83V633.526H1759.1V668.113H1794.83V703.841H1829.41V668.113H1865.14V633.526H1829.41V597.798Z" fill="#D1F0FF"/>
<path d="M1713.41 597.365H1702.97V586.926H1692.86V597.365H1682.45V607.45H1692.86V617.89H1702.97V607.45H1713.41V597.365Z" fill="#D1F0FF"/>
<path d="M1685.74 892.271H1656.63V863.157H1628.45V892.271H1599.34V920.448H1628.45V949.562H1656.63V920.448H1685.74V892.271Z" fill="#D1F0FF"/>
<path d="M1433.85 640.078V675.197V678.466H1437.12H1472.24V709.075H1437.12H1433.85V712.344V747.464H1403.24V712.369V709.101H1399.97H1364.83V678.491H1399.95H1403.22V675.223V640.078H1433.85ZM1437.12 636.809H1399.97V675.223H1361.56V712.395H1399.97V750.808H1437.14V712.369H1475.56V675.197H1437.12V636.809Z" fill="#D1F0FF"/>
<path d="M1233.55 805.918V829.508V831.713H1235.75H1259.34V852.263H1235.75H1233.55V854.467V878.057H1213V854.467V852.263H1210.79H1187.2V831.713H1210.79H1213V829.508V805.918H1233.55ZM1235.75 803.713H1210.79V829.508H1185V854.467H1210.79V880.262H1235.75V854.467H1261.55V829.508H1235.75V803.713Z" fill="#D1F0FF"/>
<path d="M1432.69 844.965H1420.83V833.106H1409.35V844.965H1397.49V856.443H1409.35V868.327H1420.83V856.443H1432.69V844.965Z" fill="#D1F0FF"/>
</g>
<g opacity="0.4">
<path d="M455.554 322.119V312.483V311.587H454.658H445.022V303.192H454.658H455.554V302.296V292.66H463.949V302.296V303.192H464.845H474.481V311.587H464.845H463.949V312.483V322.119H455.554ZM454.658 323.015H464.845V312.483H475.377V302.296H464.845V291.764H454.658V302.296H444.126V312.483H454.658V323.015Z" fill="#D1F0FF"/>
<path d="M210.63 328.608H224.593V342.588H238.124V328.608H252.103V315.094H238.124V301.115H224.593V315.094H210.63V328.608Z" fill="#D1F0FF"/>
<path d="M359.095 154.019C358.285 154.019 357.629 154.675 357.629 155.485C357.629 156.294 358.285 156.95 359.095 156.95C359.904 156.95 360.56 156.294 360.56 155.485C360.56 154.675 359.904 154.019 359.095 154.019Z" fill="#D1F0FF"/>
<path d="M432.334 216.233H442.849V226.748H453.036V216.233H463.568V206.046H453.036V195.514H442.849V206.046H432.334V216.233Z" fill="#D1F0FF"/>
<path d="M294.731 260.773H304.694V270.736H314.33V260.773H324.293V251.12H314.33V241.157H304.694V251.12H294.731V260.773Z" fill="#D1F0FF"/>
<path d="M486.065 159.193C486.065 158.365 486.737 157.693 487.565 157.693C488.392 157.693 489.064 158.365 489.064 159.193C489.064 160.02 488.392 160.692 487.565 160.692C486.737 160.692 486.065 160.02 486.065 159.193Z" fill="#D1F0FF"/>
<path d="M42.7907 180.445H60.8209V198.475H78.265V180.445H96.2952V163.001H78.265V144.971H60.8209V163.001H42.7907L42.7907 180.445Z" fill="#D1F0FF"/>
<path d="M34.9999 288.975C34.9999 287.492 36.2066 286.286 37.689 286.286C39.1714 286.286 40.378 287.492 40.378 288.975C40.378 290.457 39.1714 291.664 37.689 291.664C36.2066 291.646 34.9999 290.44 34.9999 288.975Z" fill="#D1F0FF"/>
<path d="M127.581 223.609V200.494V198.34H125.426H102.311V178.207H125.426H127.581V176.052V152.937H147.714V176.052V178.207H149.869H172.984V198.34H149.869H147.714V200.494V223.609H127.581ZM125.409 225.764H149.852V200.494H175.121V176.052H149.852V150.782H125.409V176.052H100.139V200.494H125.409V225.764Z" fill="#D1F0FF"/>
<path d="M191.325 279.386C191.325 278.318 192.186 277.473 193.238 277.473C194.307 277.473 195.151 278.335 195.151 279.386C195.151 280.455 194.289 281.3 193.238 281.3C192.186 281.3 191.325 280.438 191.325 279.386Z" fill="#D1F0FF"/>
<path d="M98.6913 372.443V350.207V348.139H96.6228H74.3867V328.764H96.6228H98.6913V326.696V304.459H118.066V326.696V328.764H120.134H142.371V348.139H120.134H118.066V350.207V372.443H98.6913ZM96.6228 374.512H120.152V350.207H144.456V326.678H120.152V302.374H96.6228V326.678H72.3182V350.207H96.6228V374.512Z" fill="#D1F0FF"/>
<path d="M175.535 374.807H182.637V381.909H189.515V374.807H196.599V367.947H189.515V360.845H182.637V367.947H175.535V374.807Z" fill="#D1F0FF"/>
<path d="M194.358 174.192H214.164V193.998H233.332V174.192H253.137V155.024H233.332V135.218H214.164V155.024H194.358V174.192Z" fill="#D1F0FF"/>
<path d="M365.714 345.751V321.861V319.637H363.491H339.6V298.814H363.491H365.714V296.591V272.7H386.537V296.573V298.797H388.76H412.669V319.62H388.778H386.554V321.843V345.751H365.714ZM363.491 347.975H388.76V321.843H414.892V296.556H388.76V270.425H363.473V296.573H337.342V321.861H363.491V347.975Z" fill="#D1F0FF"/>
<path d="M501.973 232.933V216.885V215.385H500.474H484.426V201.406H500.474H501.973V199.906V183.858H515.953V199.906V201.406H517.452H533.5V215.385H517.452H515.953V216.885V232.933H501.973ZM500.474 234.433H517.452V216.885H535V199.906H517.452V182.359H500.474V199.906H482.926V216.885H500.474V234.433Z" fill="#D1F0FF"/>
<path d="M366.506 206.374H374.573V214.441H382.381V206.374H390.449V198.565H382.381V190.481H374.573V198.565H366.506V206.374Z" fill="#D1F0FF"/>
</g>
<g opacity="0.4">
<path d="M145.446 553.789V563.425V564.321H146.342H155.978V572.715H146.342H145.446V573.612V583.247H137.051V573.612V572.715H136.155H126.519V564.321H136.155H137.051V563.425V553.789H145.446ZM146.342 552.893H136.155V563.425H125.623V573.612H136.155V584.144H146.342V573.612H156.874V563.425H146.342V552.893Z" fill="#D1F0FF"/>
<path d="M390.37 547.298H376.407V533.318H362.876V547.298H348.897V560.812H362.876V574.791H376.407V560.812H390.37V547.298Z" fill="#D1F0FF"/>
<path d="M241.905 721.888C242.714 721.888 243.37 721.232 243.37 720.423C243.37 719.613 242.714 718.958 241.905 718.958C241.096 718.958 240.44 719.613 240.44 720.423C240.44 721.232 241.096 721.888 241.905 721.888Z" fill="#D1F0FF"/>
<path d="M168.665 659.677H158.151V649.163H147.963V659.677H137.431V669.865H147.963V680.397H158.151V669.865H168.665V659.677Z" fill="#D1F0FF"/>
<path d="M306.269 615.135H296.306V605.171H286.67V615.135H276.707V624.787H286.67V634.751H296.306V624.787H306.269V615.135Z" fill="#D1F0FF"/>
<path d="M114.935 716.715C114.935 717.542 114.263 718.215 113.435 718.215C112.608 718.215 111.936 717.542 111.936 716.715C111.936 715.888 112.608 715.215 113.435 715.215C114.263 715.215 114.935 715.888 114.935 716.715Z" fill="#D1F0FF"/>
<path d="M558.209 695.461H540.179V677.431H522.735V695.461H504.704V712.905H522.735V730.936H540.179V712.905H558.209V695.461Z" fill="#D1F0FF"/>
<path d="M566 586.936C566 588.418 564.793 589.625 563.311 589.625C561.829 589.625 560.622 588.418 560.622 586.936C560.622 585.454 561.829 584.247 563.311 584.247C564.793 584.264 566 585.471 566 586.936Z" fill="#D1F0FF"/>
<path d="M473.419 652.301V675.416V677.57H475.573H498.689V697.704H475.573H473.419V699.858V722.973H453.286V699.858V697.704H451.131H428.016V677.57H451.131H453.286V675.416V652.301H473.419ZM475.591 650.146H451.148V675.416H425.878V699.858H451.148V725.128H475.591V699.858H500.861V675.416H475.591V650.146Z" fill="#D1F0FF"/>
<path d="M409.675 596.521C409.675 597.59 408.813 598.435 407.762 598.435C406.693 598.435 405.848 597.573 405.848 596.521C405.848 595.453 406.71 594.608 407.762 594.608C408.813 594.608 409.675 595.47 409.675 596.521Z" fill="#D1F0FF"/>
<path d="M502.308 503.464V525.701V527.769H504.377H526.613V547.144H504.377H502.308V549.212V571.448H482.934V549.212V547.144H480.865H458.629V527.769H480.865H482.934V525.701V503.464H502.308ZM504.377 501.396H480.848V525.701H456.544V549.229H480.848V573.534H504.377V549.229H528.682V525.701H504.377V501.396Z" fill="#D1F0FF"/>
<path d="M425.465 501.101H418.363V494H411.485V501.101H404.401V507.962H411.485V515.063H418.363V507.962H425.465V501.101Z" fill="#D1F0FF"/>
<path d="M406.642 701.718H386.836V681.912H367.668V701.718H347.862V720.886H367.668V740.691H386.836V720.886H406.642V701.718Z" fill="#D1F0FF"/>
<path d="M235.286 530.158V554.049V556.272H237.509H261.4V577.095H237.509H235.286V579.318V603.209H214.463V579.336V577.112H212.239H188.331V556.289H212.222H214.446V554.066V530.158H235.286ZM237.509 527.934H212.239V554.066H186.108V579.353H212.239V605.485H237.527V579.336H263.658V554.049H237.509V527.934Z" fill="#D1F0FF"/>
<path d="M99.0266 642.974V659.022V660.521H100.526H116.574V674.501H100.526H99.0266V676V692.048H85.0472V676V674.501H83.5476H67.4996V660.521H83.5476H85.0472V659.022V642.974H99.0266ZM100.526 641.474H83.5476V659.022H66V676H83.5476V693.548H100.526V676H118.074V659.022H100.526V641.474Z" fill="#D1F0FF"/>
<path d="M234.494 669.537H226.427V661.47H218.619V669.537H210.552V677.345H218.619V685.43H226.427V677.345H234.494V669.537Z" fill="#D1F0FF"/>
</g>
<g opacity="0.4">
<path d="M1845.74 315.865V299.581V298.066H1844.22H1827.94V283.879H1844.22H1845.74V282.364V266.08H1859.92V282.364V283.879H1861.44H1877.72V298.066H1861.44H1859.92V299.581V315.865H1845.74ZM1844.22 317.38H1861.44V299.581H1879.24V282.364H1861.44V264.565H1844.22V282.364H1826.42V299.581H1844.22V317.38Z" fill="#D1F0FF"/>
<path d="M1431.82 326.835H1455.41V350.46H1478.28V326.835H1501.9V303.996H1478.28V280.371H1455.41V303.996H1431.82V326.835Z" fill="#D1F0FF"/>
<path d="M1682.72 31.7782C1681.35 31.7782 1680.24 32.8868 1680.24 34.2543C1680.24 35.6219 1681.35 36.7305 1682.72 36.7305C1684.09 36.7305 1685.2 35.6219 1685.2 34.2543C1685.2 32.8868 1684.09 31.7782 1682.72 31.7782Z" fill="#D1F0FF"/>
<path d="M1806.5 136.914H1824.27V154.684H1841.48V136.914H1859.28V119.697H1841.48V101.898H1824.27V119.697H1806.5V136.914Z" fill="#D1F0FF"/>
<path d="M1573.95 212.191H1590.78V229.028H1607.07V212.191H1623.9V195.877H1607.07V179.04H1590.78V195.877H1573.95V212.191Z" fill="#D1F0FF"/>
<path d="M1897.3 40.5198C1897.3 39.1215 1898.44 37.9854 1899.83 37.9854C1901.23 37.9854 1902.37 39.1215 1902.37 40.5198C1902.37 41.9181 1901.23 43.0542 1899.83 43.0542C1898.44 43.0542 1897.3 41.9181 1897.3 40.5198Z" fill="#D1F0FF"/>
<path d="M1148.17 76.4386L1178.64 76.4386V106.91L1208.12 106.91V76.4386H1238.59V46.9581L1208.12 46.9581V16.487L1178.64 16.487V46.9581L1148.17 46.9581V76.4386Z" fill="#D1F0FF"/>
<path d="M1135 259.847C1135 257.341 1137.04 255.302 1139.54 255.302C1142.05 255.302 1144.09 257.341 1144.09 259.847C1144.09 262.352 1142.05 264.391 1139.54 264.391C1137.04 264.362 1135 262.323 1135 259.847Z" fill="#D1F0FF"/>
<path d="M1291.46 149.38V110.315V106.674H1287.82L1248.76 106.674V72.6491H1287.82H1291.46V69.0077V29.943L1325.49 29.943V69.0077V72.6491H1329.13H1368.19V106.674H1329.13H1325.49V110.315V149.38H1291.46ZM1287.79 153.021H1329.1V110.315H1371.81V69.0077H1329.1V26.3016L1287.79 26.3016V69.0077H1245.09V110.315L1287.79 110.315V153.021Z" fill="#D1F0FF"/>
<path d="M1399.19 243.648C1399.19 241.842 1400.65 240.414 1402.42 240.414C1404.23 240.414 1405.66 241.871 1405.66 243.648C1405.66 245.454 1404.2 246.881 1402.42 246.881C1400.65 246.881 1399.19 245.425 1399.19 243.648Z" fill="#D1F0FF"/>
<path d="M1242.64 400.913V363.334V359.839H1239.14H1201.56V327.096H1239.14H1242.64V323.6V286.021H1275.38V323.6V327.096H1278.88H1316.46V359.839H1278.88H1275.38V363.334V400.913H1242.64ZM1239.14 404.409H1278.91V363.334H1319.98V323.571H1278.91V282.496H1239.14V323.571H1198.07V363.334H1239.14V404.409Z" fill="#D1F0FF"/>
<path d="M1372.5 404.907H1384.51V416.909H1396.13V404.907H1408.1V393.313H1396.13V381.311H1384.51V393.313H1372.5V404.907Z" fill="#D1F0FF"/>
<path d="M1404.32 65.8654L1437.79 65.8654V99.3369L1470.18 99.3369V65.8654H1503.65V33.4718H1470.18V0.000244141L1437.79 0.000244141V33.4718H1404.32V65.8654Z" fill="#D1F0FF"/>
<path d="M1693.91 355.802V315.427V311.669H1690.15H1649.77V276.478H1690.15H1693.91V272.721V232.345H1729.1V272.691V276.449H1732.86H1773.26V311.64H1732.88H1729.13V315.397V355.802H1693.91ZM1690.15 359.56H1732.86V315.397H1777.02V272.662H1732.86V228.5H1690.12V272.691H1645.96V315.427H1690.15V359.56Z" fill="#D1F0FF"/>
<path d="M1924.19 165.143V138.022V135.487H1921.65H1894.53V111.862H1921.65H1924.19V109.328V82.2069H1947.81V109.328V111.862H1950.34H1977.47V135.487H1950.34H1947.81V138.022V165.143H1924.19ZM1921.65 167.677H1950.34V138.022H1980V109.328H1950.34V79.6725L1921.65 79.6725V109.328L1892 109.328V138.022H1921.65V167.677Z" fill="#D1F0FF"/>
<path d="M1695.24 120.251H1708.88V133.884H1722.07V120.251H1735.71V107.055H1722.07V93.3922H1708.88V107.055H1695.24V120.251Z" fill="#D1F0FF"/>
</g>
<g opacity="0.6">
<path d="M1451 795.78H1512.38C1512.71 795.78 1513 795.91 1513.09 796.09L1518.67 807.64L1522.76 779.13C1522.8 778.92 1523.09 778.75 1523.45 778.74C1523.81 778.73 1524.14 778.87 1524.21 779.08L1530 795.78H1539.38C1539.74 795.78 1540.07 795.94 1540.1 796.15L1544.59 815.75L1549.28 779.13C1549.31 778.92 1549.61 778.75 1549.97 778.73C1550.33 778.72 1550.65 778.86 1550.74 779.07L1556.81 795.77H1563.37C1563.71 795.77 1564.01 795.91 1564.09 796.1L1566.02 800.95L1570.76 750.4C1570.78 750.17 1571.1 750 1571.5 750C1571.89 750 1572.2 750.18 1572.24 750.41L1578.63 832.89L1583.92 790.22C1583.94 790.03 1584.2 789.87 1584.52 789.83C1584.85 789.8 1585.18 789.89 1585.33 790.07L1589.97 795.78H1655.12C1655.45 795.78 1655.74 795.91 1655.82 796.09L1661.41 807.64L1665.5 779.12C1665.53 778.91 1665.82 778.74 1666.19 778.73C1666.53 778.72 1666.87 778.86 1666.94 779.07L1672.73 795.77H1682.12C1682.48 795.77 1682.8 795.93 1682.84 796.14L1687.32 815.75L1692.01 779.13C1692.05 778.92 1692.34 778.75 1692.7 778.73C1693.08 778.72 1693.39 778.86 1693.47 779.07L1699.54 795.77H1706.11C1706.45 795.77 1706.74 795.91 1706.83 796.1L1708.75 800.95L1713.49 750.4C1713.51 750.17 1713.84 750 1714.23 750C1714.63 750 1714.96 750.18 1714.97 750.41L1721.37 832.89L1726.66 790.22C1726.68 790.03 1726.93 789.87 1727.26 789.83C1727.59 789.8 1727.91 789.89 1728.07 790.07L1732.71 795.78H1797.42C1797.75 795.78 1798.04 795.91 1798.13 796.09L1803.71 807.64L1807.8 779.13C1807.84 778.92 1808.13 778.75 1808.49 778.74C1808.85 778.73 1809.18 778.87 1809.25 779.08L1815.04 795.78H1824.42C1824.78 795.78 1825.11 795.94 1825.14 796.15L1829.63 815.75L1834.32 779.13C1834.35 778.92 1834.65 778.75 1835.01 778.73C1835.37 778.72 1835.69 778.86 1835.78 779.07L1841.85 795.77H1848.41C1848.75 795.77 1849.05 795.91 1849.13 796.1L1851.06 800.95L1855.8 750.4C1855.82 750.17 1856.14 750 1856.54 750C1856.93 750 1857.26 750.18 1857.28 750.41L1863.67 832.89L1868.96 790.22C1868.98 790.03 1869.24 789.87 1869.57 789.83C1869.89 789.8 1870.22 789.89 1870.37 790.07L1875.01 795.78H1939.76C1940.09 795.78 1940.38 795.91 1940.47 796.09L1946.05 807.64L1950.14 779.12C1950.18 778.91 1950.47 778.74 1950.83 778.73C1951.17 778.72 1951.52 778.86 1951.59 779.07L1957.38 795.77H1966.76C1967.12 795.77 1967.45 795.93 1967.48 796.14L1971.97 815.75L1976.66 779.13C1976.69 778.92 1976.99 778.75 1977.35 778.73C1977.71 778.72 1978.03 778.86 1978.12 779.07L1984.19 795.77H1990.75C1991.09 795.77 1991.39 795.91 1991.47 796.1L1993.4 800.95L1998.14 750.4C1998.16 750.17 1998.48 750 1998.88 750C1999.27 750 1999.6 750.18 1999.62 750.41L2006.01 832.89L2011.3 790.22C2011.32 790.03 2011.58 789.87 2011.91 789.83C2012.23 789.8 2012.56 789.89 2012.71 790.07L2017.35 795.78H2050.26C2050.67 795.78 2051 795.97 2051 796.21C2051 796.45 2050.67 796.64 2050.26 796.64H2016.89C2016.6 796.64 2016.34 796.54 2016.22 796.4L2012.58 791.92L2006.6 840.25C2006.56 840.47 2006.25 840.65 2005.86 840.65H2005.84C2005.44 840.65 2005.13 840.47 2005.12 840.24L1998.83 759.04L1994.6 804.04C1994.58 804.25 1994.29 804.42 1993.93 804.44C1993.57 804.46 1993.23 804.32 1993.16 804.11L1990.2 796.65H1983.64C1983.29 796.65 1982.98 796.51 1982.91 796.31L1977.79 782.21L1972.95 819.95C1972.91 820.17 1972.6 820.34 1972.24 820.35C1971.86 820.37 1971.54 820.2 1971.49 819.98L1966.16 796.66H1956.81C1956.47 796.66 1956.16 796.52 1956.09 796.32L1951.21 782.23L1947.22 810.1C1947.19 810.31 1946.91 810.47 1946.55 810.49C1946.21 810.52 1945.86 810.38 1945.78 810.18L1939.23 796.66H1874.57C1874.27 796.66 1874.02 796.56 1873.9 796.42L1870.25 791.94L1864.27 840.27C1864.24 840.49 1863.93 840.67 1863.53 840.67H1863.52C1863.12 840.67 1862.81 840.49 1862.79 840.26L1856.5 759.06L1852.28 804.06C1852.26 804.27 1851.97 804.44 1851.61 804.46C1851.25 804.48 1850.9 804.34 1850.83 804.13L1847.88 796.67H1841.31C1840.97 796.67 1840.66 796.53 1840.59 796.33L1835.47 782.23L1830.62 819.97C1830.59 820.19 1830.28 820.36 1829.92 820.37C1829.58 820.36 1829.22 820.22 1829.16 820L1823.84 796.68H1814.49C1814.14 796.68 1813.84 796.54 1813.77 796.34L1808.89 782.25L1804.9 810.12C1804.87 810.33 1804.59 810.49 1804.23 810.51C1803.87 810.54 1803.54 810.4 1803.46 810.2L1796.91 796.68H1732.24C1731.95 796.68 1731.69 796.58 1731.57 796.44L1727.93 791.96L1721.95 840.29C1721.92 840.51 1721.61 840.69 1721.21 840.69H1721.19C1720.8 840.69 1720.49 840.51 1720.47 840.28L1714.18 759.08L1709.95 804.08C1709.94 804.29 1709.65 804.46 1709.28 804.48C1708.92 804.5 1708.58 804.36 1708.51 804.15L1705.56 796.69H1698.99C1698.65 796.69 1698.34 796.55 1698.27 796.35L1693.15 782.25L1688.3 819.99C1688.27 820.21 1687.96 820.38 1687.6 820.39C1687.27 820.38 1686.89 820.24 1686.84 820.02L1681.51 796.7H1672.17C1671.82 796.7 1671.51 796.56 1671.44 796.36L1666.56 782.27L1662.58 810.14C1662.54 810.35 1662.27 810.51 1661.91 810.53C1661.56 810.56 1661.22 810.42 1661.13 810.22L1654.59 796.7H1589.54C1589.25 796.7 1588.99 796.6 1588.87 796.46L1585.23 791.98L1579.25 840.31C1579.21 840.54 1578.92 840.75 1578.51 840.71C1578.11 840.71 1577.81 840.53 1577.79 840.3L1571.5 759.1L1567.27 804.1C1567.25 804.31 1566.96 804.48 1566.6 804.5C1566.26 804.52 1565.9 804.38 1565.83 804.17L1562.87 796.71H1556.31C1555.96 796.71 1555.65 796.57 1555.59 796.37L1550.46 782.27L1545.62 820.01C1545.58 820.23 1545.27 820.4 1544.91 820.41C1544.52 820.41 1544.21 820.26 1544.16 820.04L1538.83 796.72H1529.48C1529.14 796.72 1528.83 796.58 1528.76 796.38L1523.88 782.29L1519.89 810.16C1519.86 810.37 1519.58 810.53 1519.22 810.55C1518.86 810.58 1518.54 810.44 1518.45 810.24L1511.9 796.72H1451.07V795.78H1451Z" fill="#C2EBFF"/>
</g>
<defs>
<linearGradient id="paint0_linear" x1="1817" y1="603" x2="-347" y2="1015" gradientUnits="userSpaceOnUse">
<stop stop-color="#7CD0EC"/>
<stop offset="1" stop-color="#90CEE3" stop-opacity="0"/>
</linearGradient>
</defs>
</svg>
