<svg width="35" height="28" viewBox="0 0 35 28" fill="none" xmlns="http://www.w3.org/2000/svg">
<path d="M19.0362 5.03029C18.4452 5.03384 18.1345 4.867 17.8931 4.32564C17.4121 3.25003 16.8193 2.22411 16.3365 1.1485C15.9567 0.307182 15.3745 -0.00698235 14.4586 0.000117399C11.9418 0.0178668 7.53639 0.0196417 3.49308 0.0160918C1.56372 0.0160918 0 1.57981 0 3.50739V23.9813C0 25.9089 1.56195 27.4726 3.4913 27.4726C8.46113 27.4726 14.0983 27.4726 17.4956 27.4708C21.2176 27.4708 26.7536 27.4708 31.5105 27.4691C33.4381 27.4691 35 25.9053 35 23.9778V8.50917C35 6.58159 33.4398 5.01964 31.5122 5.01787C27.224 5.01432 22.2755 5.01432 19.0362 5.03029Z" fill="url(#paint0_linear)"/>
<defs>
<linearGradient id="paint0_linear" x1="25.6667" y1="21.5833" x2="-11.0833" y2="-14" gradientUnits="userSpaceOnUse">
<stop stop-color="#E2BC34"/>
<stop offset="1" stop-color="#FFE177"/>
</linearGradient>
</defs>
</svg>
