<svg width="80" height="56" viewBox="0 0 80 56" fill="none" xmlns="http://www.w3.org/2000/svg">
<path d="M37.2793 1.41874C36.9082 1.32739 36.5328 1.25558 36.1592 1.17432C30.9306 1.17432 25.702 1.17432 20.4734 1.17432C20.4079 1.19636 20.3436 1.22156 20.2775 1.2392C19.7131 1.39102 19.1152 1.46787 18.5892 1.70411C15.7072 2.99991 14.2249 5.24569 14.1739 8.41308C14.1569 9.46258 14.172 10.5121 14.1739 11.5616C14.1739 11.6403 14.1897 11.7197 14.1978 11.8003C15.3746 11.8003 16.5255 11.8003 17.7111 11.8003C17.7111 11.6762 17.7111 11.5641 17.7111 11.452C17.7111 10.3918 17.706 9.33155 17.7123 8.27135C17.7243 6.3248 19.2689 4.72409 21.2098 4.71653C25.9647 4.69763 30.7196 4.70141 35.4744 4.71527C37.2263 4.72031 38.737 6.03565 38.9215 7.76927C39.0274 8.76586 38.9707 9.78071 38.9845 10.7867C38.9889 11.1194 38.9852 11.4526 38.9852 11.794C39.4255 11.794 39.8608 11.794 40.2923 11.794C40.686 9.96969 41.384 8.23859 42.3428 6.67064C41.8344 4.19178 39.7474 2.02475 37.2793 1.41874Z" fill="white"/>
<path d="M40.1802 18.2022C39.8513 16.3558 39.8413 14.5226 40.1121 12.7632C36.2373 12.7638 32.3625 12.7644 28.4876 12.7651C21.3301 12.7657 14.1726 12.76 7.01577 12.7663C4.01972 12.7689 1.31408 14.7387 0.375451 17.5911C0.217333 18.0718 0.12347 18.5732 0 19.0652C0 29.0392 0 39.0139 0 48.9879C0.0995323 49.3993 0.171347 49.8201 0.303636 50.2201C1.241 53.0567 3.19511 54.7167 6.13509 55.2263C6.19179 55.2364 6.24534 55.2666 6.30014 55.2874C20.978 55.2874 35.6559 55.2874 50.3337 55.2874C50.8465 55.1639 51.3782 55.0909 51.8695 54.9088C54.5972 53.8952 56.2055 51.9524 56.6402 49.0597C56.6471 49.0131 56.6767 48.9696 56.6962 48.9249C56.6962 43.1829 56.6962 37.4409 56.6962 31.6989C48.9529 31.857 41.6448 26.4193 40.1802 18.2022ZM38.9681 37.5669C36.6178 37.5669 34.2719 37.5669 31.8951 37.5669C31.8951 39.9317 31.8951 42.2669 31.8951 44.6255C29.5302 44.6255 27.195 44.6255 24.8257 44.6255C24.8257 42.2972 24.8257 39.9632 24.8257 37.5952C22.447 37.5952 20.1024 37.5952 17.7331 37.5952C17.7331 35.2159 17.7331 32.8706 17.7331 30.4692C20.0885 30.4692 22.4338 30.4692 24.8012 30.4692C24.8012 28.1094 24.8012 25.7818 24.8012 23.4283C27.166 23.4283 29.5082 23.4283 31.8818 23.4283C31.8818 25.7692 31.8818 28.1038 31.8818 30.4692C34.2586 30.4692 36.6039 30.4692 38.9681 30.4692C38.9681 32.846 38.9681 35.1913 38.9681 37.5669Z" fill="white"/>
<path d="M68.5204 24.8308C68.6382 24.6821 68.7302 24.5668 68.8209 24.4515C71.2966 21.2986 72.4078 17.7275 72.0658 13.7273C71.5259 7.41956 67.1055 2.15128 60.9755 0.523489C60.0557 0.279068 59.1001 0.171347 58.1609 0C57.4238 0 56.6868 0 55.9497 0C55.0842 0.156228 54.2054 0.2608 53.355 0.476873C49.4367 1.47346 46.2623 3.94601 44.2906 7.17073C43.4131 8.60576 42.7749 10.1901 42.414 11.8601C42.351 12.153 42.2955 12.4491 42.2495 12.7471C42.0013 14.3578 42.0108 16.0348 42.3119 17.7249C43.6518 25.2453 50.3406 30.2219 57.4263 30.0764C59.4271 30.0354 61.4593 29.5863 63.4115 28.671C64.272 28.2672 65.0821 27.7556 66.068 27.2107C69.8584 31.0364 73.7017 34.9157 77.4852 38.7351C78.3098 37.9111 79.1193 37.1016 80 36.2215C76.1976 32.4475 72.3606 28.6407 68.5204 24.8308ZM69.1529 15.0098C69.1529 21.6558 63.746 27.0627 57.1 27.0627C50.454 27.0627 45.0472 21.6558 45.0472 15.0098C45.0472 8.36386 50.454 2.95699 57.1 2.95699C63.746 2.95699 69.1529 8.36386 69.1529 15.0098Z" fill="white"/>
<path d="M53.6951 23.2024C49.6124 22.1321 46.8715 17.6683 47.6867 13.4949C47.8158 12.8353 48.0439 12.3206 48.83 12.3924C49.4738 12.451 49.7516 12.9726 49.6345 13.8319C49.1923 17.0862 50.6235 19.7534 53.5118 21.0499C53.7355 21.15 53.9742 21.2168 54.206 21.2974C54.9361 21.5519 55.2965 22.0792 55.071 22.6361C54.8045 23.295 54.2911 23.4216 53.6951 23.2024Z" fill="white"/>
</svg>
